**ABCDEFGHIJKLMNOPQRSTUVWXYZabcdefghijklmnopqrstuvwxyz**************************
**PARASOLID !"#$%&'()*+,-./:;<=>?@[\]^_`{|}~0123456789**************************
**PART1;
MC=AMD64;
MC_MODEL=Intel64 Family 6 Model 183 Stepping 1, GenuineIntel;
MC_ID=unknown;
OS=Windows_NT;
OS_RELEASE=unknown;
FRU=Parasolid Version 37.1, build 250, 12- 2-2025;
APPL=SOLIDWORKS 2026-2026100;
SITE=;
USER=unknown;
FORMAT=text;
GUISE=transmit;
KEY=makeProjectedPlanarWire;
FILE=makeProjectedPlanarWire.x_t;
DATE=Sat Jun 27 22:45:29 2026;
**PART2;
SCH=SCH_3701250_37102;
USFLD_SIZE=0;
**PART3;
**END_OF_HEADER*****************************************************************
T51 : TRANSMIT FILE created by modeller version 370125023 SCH_3701250_37102_1300
6239 0 12 36 CCCI7 lattice222 0 CCCI4 mesh1006 0 I8 polyline1008 0 CCCCCCCDI5 ow
ner1040 0 CCCI16 boundary_lattice222 0 CCCI13 boundary_mesh1006 0 I17 boundary_p
olyline1008 0 CCCA16 index_map_offset0 0 1 dA9 index_map82 0 A17 node_id_index_m
ap82 0 A20 schema_embedding_map82 0 A5 child12 0 A14 lowest_node_id0 0 1 dA16 me
sh_offset_data206 0 Z1 124 2 3 0 0 0 0 0 0 0 1e3 1e-8 0 4 0 1 0 3 1 5 0 6 7 8 0
 0 9 10 11 0 0 0 0 0 0 0 81 255 2 2 102 12 1 0 0 0 0 13 0 70 11 CI9 list_type0 0
 1 uI10 notransmit0 0 1 lCCCDCCDI12 finger_index0 0 1 dI12 finger_block1012 0 CZ
3 0 4 T1 0 0 2 20 1 14 14 13 255 5 107 0 1 0 15 0 0 9 15 50 255 6 3 0 15 0 0 0 +
0 0 .0186 0 0 -1 -1 0 0 31 255 7 62 0 10 16 0 0 --.0357 -.03932 .0186 0 0 -1 -1
 0 0 .0025 29 255 8 98 0 11 17 0 .0385 .06822 .0186 19 9 CCCCCCI5 frame230 0 CA5
 owner12 0 Z9 106 0 1 0 0 5 0 V0 16 255 10 60 0 ?18 0 19 7 0 0 1 18 255 11 96 0
 20 0 21 8 ?1 17 255 20 0 0 0 0 11 22 23 0 24 +18 21 93 0 25 11 27 17 ?1 17 25 0
 30 24 29 21 26 28 0 34 -18 27 90 0 29 21 35 32 ?1 29 17 95 0 21 32 8 .0345 .072
22 .0186 29 32 92 0 27 33 17 -.0345 .07222 .0186 29 33 89 0 35 31 32 -.0385 .068
22 .0186 18 35 87 0 38 27 40 33 ?1 29 31 86 0 40 36 33 -.0385 -.06822 .0186 18 4
0 84 0 39 35 37 31 ?1 29 36 83 0 37 41 31 -.0345 -.07222 .0186 18 37 81 0 45 40
 43 36 ?1 29 41 80 0 43 42 36 .0345 -.07222 .0186 18 43 78 0 44 37 46 41 ?1 29 4
2 77 0 46 50 41 .0385 -.06822 .0186 18 46 75 0 48 43 47 42 ?1 29 50 74 0 47 49 4
2 .0385 -.01122 .0186 18 47 72 0 51 46 55 50 ?1 29 49 71 0 55 52 50 .0405 -.0112
2 .0186 18 55 69 0 53 47 54 49 ?1 29 52 68 0 54 57 49 .0405 .01422458816062414 .
0186 18 54 66 0 60 55 59 52 ?1 29 57 65 0 59 0 52 .0385 .01422458816062414 .0186
 18 59 63 0 22 54 0 57 ?1 17 22 0 30 60 24 59 20 23 0 56 -15 255 30 8 0 22 15 58
 17 60 0 30 53 22 54 56 61 0 62 +17 24 0 30 22 25 11 34 64 0 0 -16 23 14 0 ?20 6
1 0 63 65 65 1 17 56 0 0 0 0 59 60 61 0 0 -16 61 17 0 ?60 66 23 70 0 0 1 16 66 2
0 0 ?53 68 61 67 0 0 1 30 255 70 19 0 61 63 67 0 +.0335 .01422458816062414 .0186
 1 0 0 30 63 16 0 23 0 70 0 +.0385 0 .0186 0 1 0 30 67 22 0 66 70 69 0 +.0405 -.
01122 .0186 0 -1 0 30 69 25 0 68 67 75 0 +.0335 -.01122 .0186 1 0 0 16 68 23 0 ?
71 65 66 69 0 0 1 31 75 29 0 73 69 72 0 -.0345 -.06822 .0186 0 0 -1 -1 0 0 .004
 16 73 27 0 ?74 76 65 75 0 0 1 30 72 32 0 76 75 80 0 +0 -.07222 .0186 1 0 0 16 7
6 30 0 ?77 78 73 72 0 0 1 31 80 35 0 78 72 79 0 --.0345 -.06822 .0186 0 0 -1 -1
 0 0 .004 16 78 33 0 ?82 85 76 80 0 0 1 30 79 38 0 85 80 84 0 +-.0385 0 .0186 0
 -1 0 16 85 36 0 ?81 83 78 79 0 0 1 31 84 41 0 83 79 89 0 --.0345 .06822 .0186 0
 0 -1 -1 0 0 .004 16 83 39 0 ?90 28 85 84 0 0 1 30 89 44 0 28 84 87 0 +0 .07222
 .0186 -1 0 0 16 28 42 0 ?26 64 83 89 0 0 1 31 87 47 0 64 89 88 0 -.0345 .06822
 .0186 0 0 -1 -1 0 0 .004 16 64 45 0 ?34 86 28 87 0 0 1 31 88 50 0 86 87 93 0 -.
0292437098660317 .0626507392450305 .0186 0 0 -1 -1 0 0 .0076 16 86 48 0 ?95 91 6
4 88 0 0 1 31 93 53 0 91 88 94 0 --.0357 .03932 .0186 0 0 -1 -1 0 0 .0025 16 91
 51 0 ?92 96 86 93 0 0 1 31 94 56 0 96 93 16 0 -.0357 .03932 .0186 0 0 -1 -1 0 0
 .0025 16 96 54 0 ?100 19 91 94 0 0 1 31 16 59 0 19 94 7 0 -.0357 -.03932 .0186
 0 0 -1 -1 0 0 .0025 16 19 57 0 ?98 10 96 16 0 0 1 17 98 0 97 98 98 0 99 19 0 0
 +15 97 12 0 98 15 101 17 99 0 0 0 0 0 98 19 0 0 -14 255 15 1 105 ?0 0 30 5 6 +0
 0 0 0 5 15 101 13 0 18 15 0 17 18 0 101 18 18 0 103 10 0 0 +17 103 0 0 0 0 0 18
 10 0 0 -81 1 105 124 102 15 0 0 0 0 104 80 7 CCCCCDI12 legal_owners0 17 1 lCZ1
 102 106 110 9000 1 1 1 1 1 1 1 1 0 FFFFTFTFFFFFFFFFF1 82 255 1 104 -321255310 7
9 255 14 110 SWEntUnchanged17 100 0 107 100 100 0 108 96 0 0 +15 107 11 0 100 15
 97 17 108 0 0 0 0 0 100 96 0 0 -17 92 0 109 92 92 0 112 91 0 0 +15 109 10 0 92
 15 107 17 112 0 0 0 0 0 92 91 0 0 -17 95 0 58 95 95 0 115 86 0 0 +15 58 9 0 95
 15 109 17 115 0 0 0 0 0 95 86 0 0 -17 34 0 0 0 0 21 24 64 0 0 +17 26 0 0 0 0 27
 25 28 0 0 +17 90 0 0 0 0 35 29 83 0 0 +17 29 0 30 25 38 27 90 83 0 26 -17 38 0
 30 29 39 35 81 85 0 90 -17 39 0 30 38 45 40 82 78 0 81 -17 81 0 0 0 0 40 38 85
 0 0 +17 45 0 30 39 44 37 77 76 0 82 -17 82 0 0 0 0 37 39 78 0 0 +17 44 0 30 45
 48 43 74 73 0 77 -17 77 0 0 0 0 43 45 76 0 0 +17 48 0 30 44 51 46 114 65 0 74 -
17 74 0 0 0 0 46 44 73 0 0 +17 51 0 30 48 53 47 71 68 0 114 -17 114 0 0 0 0 47 4
8 65 0 0 +16 65 26 0 ?114 73 68 63 23 23 1 17 53 0 30 51 60 55 62 66 0 71 +17 71
 0 0 0 0 55 51 68 0 0 +17 62 0 0 0 0 54 53 66 0 0 -74 4 CI16 index_map_offset0 0
 1 dCCZ20 14 2 0 0 2 105 0 0 0 0 0 0 0 0 0 0 0 0 0 0 0 0 0 0 80 2 12 111 113 900
0 0 0 0 0 3 5 0 0 0 FFTFTTTFFTFFFFFFF10 10 98 255 25 13 83 99 104 110 105 116 11
6 45 76 105 110 101 97 114 32 97 117 115 116 114 97 103 101 110 54 79 23 113 SWI
MPLICITBODYNAME_ID_U1 0 
